<svg class="tw_logo" viewBox="0 0 349.8 115.1">
                    <path class="st0" d="M96.2 0H2.5C1.1 0 0 1.2 0 2.7v27.7c0 1.5 1.1 2.6 2.5 2.6l28.6-0.7v82.9l36.4-3.2V31.4l28.6-0.7c1.4 0 2.5-1.2 2.5-2.5V2.5C98.7 1.1 97.6 0 96.2 0z"></path>
                    <path class="st0" d="M143.6 0h-31.8c-1.4 0-2.5 1.1-2.5 2.5v105.9l36.8-3.2V2.4C146.1 1.1 145 0 143.6 0z"></path>
                    <path class="st0" d="M305.6 0h-28.5c-1.2 0-2.2 0.7-2.4 1.6l-12.6 45.9L246 1.5c-0.3-0.9-1.3-1.5-2.4-1.5h-22.5c-1.1 0-2.1 0.7-2.4 1.6l-15 48.4L190.1 1.7c-0.3-1-1.3-1.7-2.4-1.7h-31.6c-1.6 0-2.8 1.5-2.4 3l28.7 98.9 35.3-3.1 16.1-43.8 15.6 41 30.8-2.7L308 2.6C308.4 1.3 307.2 0 305.6 0z"></path>
                    <path class="st0" d="M347.3 0h-28.8c-1.4 0-2.5 0.9-2.5 2v88.2l33.8-2.9V2C349.8 0.9 348.7 0 347.3 0z"></path>
                </svg>